<svg
  xmlns="http://www.w3.org/2000/svg"
  width="2400"
  height="650"
  viewBox="0 0 2400 650"
>
  <style>
    .a{fill:#FFF;}
  </style>

  <!-- U -->
  <path d="M1135.8 38.7v425.7c0 89.8-50.7 184.6-203.7 184.6 -138 0-204.6-71.5-204.6-184.6V38.7h125.6v417.4c0 74 31.6 103.1 77.3 103.1 54.9 0 79.8-36.6 79.8-103.1V38.7H1135.8z" class="a"/>
  <!-- S -->
  <path d="M1339.9 649c-155.5 0-184.6-91.5-177.9-195.4h125.6c0 57.4 2.5 105.6 71.5 105.6 42.4 0 63.2-27.4 63.2-68.2 0-108.1-252.8-114.7-252.8-293.5 0-94 44.9-168.8 197.9-168.8 122.2 0 182.9 54.9 174.6 180.4h-122.2c0-44.9-7.5-90.6-58.2-90.6 -40.7 0-64.8 22.5-64.8 64 0 113.9 252.8 103.9 252.8 292.7C1549.5 630.7 1435.6 649 1339.9 649z" class="a"/>
  <!-- G -->
  <path d="M1784 415.3h73.9v132.5l-6.1 2.3c-19.1 6.7-41.6 11.6-62.4 11.6 -71.5 0-89.8-33.3-89.8-221.2 0-116.4 0-222 78.2-222 60.8 0 73.6 41 74.8 90.6h125.1c1-116.5-74-180.4-192.3-180.4 -205.4 0-212.9 153.8-212.9 305.2 0 227.8 24.7 316.2 235.9 316.2 49 0 127-11.1 163-20.9 2.2-0.6 6.1-3 6.1-6.1 0-16.4 0-298.4 0-298.4h-193.3V415.3L1784 415.3z" class="a"/>
  <!-- S -->
  <path d="M2184 649c-155.5 0-184.6-91.5-177.9-195.4h125.6c0 57.4 2.5 105.6 71.5 105.6 42.4 0 63.2-27.4 63.2-68.2 0-108.1-252.8-114.7-252.8-293.5 0-94 44.9-168.8 197.9-168.8 122.2 0 182.9 54.9 174.6 180.4h-122.2c0-44.9-7.5-90.6-58.2-90.6 -40.7 0-64.9 22.5-64.9 64 0 113.9 252.8 103.9 252.8 292.7C2393.6 630.7 2279.6 649 2184 649z" class="a"/>

  <path d="M203.5 239.7l2.1 2c58.8 49.3 122.3 44.5 170.7 12.3 30.5-20.3 168.4-112 246.3-163.8V38.5H41.7v136.7C77.1 169.1 134.2 175.1 203.5 239.7z" class="a"/>
  <path d="M422 467.2l-68.6-65.8c-9.6-8.8-17.9-15.2-19.7-16.6 -56.1-39.4-108.4-27.4-130.9-19 -6.8 2.7-13.3 6.5-18 9.4L41.7 470.9v173.5h580.9V519.5C609.8 527.6 531.1 570.2 422 467.2z" class="a"/>
  <path d="M198.3 255.2c-3.1-2.9-6.5-6-9.6-8.5 -68.6-53.1-133.4-27.1-147.1-20.6v59.7l33.6-22.6c0 0 51.8-38.4 132.4 1L198.3 255.2z" class="a"/>
  <path d="M278.6 332.4c-3-2.7-6.1-5.4-9.1-8.3 -60.9-51.5-119.7-38.4-144.1-29.4 -6.9 2.8-13.5 6.5-18.2 9.4l-6.6 4.4h0l-58.9 39.4v61.5l109.6-73.8c0 0 51.2-38 131 0.3L278.6 332.4z" class="a"/>
  <path d="M622.7 396.8c-22.8 15.4-46.1 31.1-55.3 37.2 -20.7 13.8-68.5 48.1-148.1 10.1l9.4 9c3.5 3.2 7.8 6.8 12.4 10.4 57.2 42.7 118.2 36.6 164 6.2 6.3-4.2 12.1-8.1 17.6-11.7V396.8z" class="a"/>
  <path d="M622.7 273.6c-50.2 33.7-117.9 79.3-130.6 87.8 -20.7 13.8-69.2 48.6-147.1 11.4l9 8.7c1 0.9 2 1.9 3.1 2.8l-0.1 0.1 0 0 0.1-0.1c60.5 51.2 127 43.3 172.7 12.8 25.8-17.2 62.4-42 92.9-62.6L622.7 273.6 622.7 273.6z" class="a"/>
  <path d="M622.7 151c-72.3 48.5-191 128-205.4 137.6 -20.8 14-70 49.2-146.9 12.5l9.3 9c5.6 5 13 11.3 21 16.5 53.2 34 108.9 28 154.3-2.3 32.6-21.8 112.8-75.1 167.7-111.5L622.7 151 622.7 151z" class="a"/>
</svg>

